<?xml version="1.0" encoding="UTF-8"?>
<svg enable-background="new 0 0 841.9 595.3" version="1.1" viewBox="0 0 841.9 595.3" xml:space="preserve" xmlns="http://www.w3.org/2000/svg">
<style type="text/css">
	.st0{fill:#F6E7D8;}
	.st1{fill:#9D9D9C;}
	.st2{fill:#F9C7C3;}
	.st3{fill:#EFBDBB;}
	.st4{fill:#F7D0CD;}
	.st5{fill:#E0B1B1;}
	.st6{fill:#CEA275;}
	.st7{fill:#C69A71;}
	.st8{fill:#BC926F;}
	.st9{fill:#878787;}
	.st10{opacity:0.68;fill:#FFFFFF;}
	.st11{fill:#E0C0A6;}
	.st12{fill:#EDEDED;}
</style>

<g transform="translate(29.52 6.8879)">
	<ellipse class="st1" cx="503.3" cy="453.4" rx="17.7" ry="4.1"/>
	<ellipse class="st1" cx="562.2" cy="437.4" rx="17.7" ry="4.1"/>
	<ellipse class="st1" cx="629.7" cy="409.7" rx="13.6" ry="3.1"/>
	<ellipse class="st1" cx="326.4" cy="440.5" rx="130.7" ry="22.2"/>
	<path class="st2" d="m462.8 266.1v169c0 12.8-34.2 23.3-76.4 23.3s-76.4-10.4-76.4-23.3v-169c0.3 12.8 34.4 23.1 76.4 23.1 42 0.1 76.1-10.3 76.4-23.1z"/>
	<path class="st3" d="m385.3 458.4c-41.7-0.2-75.3-10.5-75.3-23.3v-169c0.2 11.2 26.7 20.6 61.7 22.7z"/>
	<path class="st4" d="m462.8 266v0.2c-0.3 12.8-34.4 23.1-76.4 23.1s-76.1-10.3-76.4-23.1v-0.2c0-12.8 34.2-23.3 76.4-23.3s76.4 10.4 76.4 23.3z"/>
	<path class="st5" d="m450 265.9c0 2.6-2.3 5-6.3 7.2-9.5-6-32.2-10.2-58.7-10.2-25.2 0-46.9 3.8-57.2 9.3-3.1-1.9-4.8-4.1-4.8-6.3 0-9.1 28.4-16.6 63.5-16.6 35 0.1 63.5 7.5 63.5 16.6z"/>
	<path class="st6" d="m443.6 273.1c-10.3 5.5-32 9.3-57.2 9.3-26.5 0-49.2-4.2-58.7-10.2 4.8-6.1 10.8-4.7 18.6-7.7 12.7-4.9 35.2-4.3 44.6-2.7 10.1 1.8 20.2-0.3 28.2 2.3 15.5 5.1 22.7 3.4 24.5 9z"/>
	<path class="st7" d="m433.6 277c-11.6 3.3-28.4 5.4-47.1 5.4-18.9 0-35.9-2.2-47.5-5.6 4.8-1.8 9.7-3.5 14.6-5.1 2.6-0.8 5.2-1.6 7.9-1.8 4.4-0.4 8.9 0.8 13.3 1.3 10.4 1.3 21.1-0.7 31.4 1.2 2.4 0.5 4.8 1.1 7.2 1.4 2.8 0.3 5.5 0.2 8.3 0.4 4 0.4 8.1 1.3 11.9 2.8z"/>
	<path class="st2" d="m543.9 344.1c0 33.3-27 60.2-60.2 60.2-7.3 0-14.4-1.3-20.9-3.7v-30.9c5.7 4.6 12.9 7.4 20.9 7.4 18.2 0 33-14.8 33-33s-14.8-33-33-33c-7.9 0-15.2 2.8-20.9 7.4v-30.9c6.5-2.4 13.5-3.7 20.9-3.7 33.2 0 60.2 27 60.2 60.2z"/>
	<path class="st3" d="m482 283.9v27.2c-7.3 0.4-13.9 3.1-19.2 7.4v-30.9c6-2.2 12.5-3.5 19.2-3.7z"/>
	<path class="st3" d="m462.8 369.7c5.3 4.3 11.9 7 19.2 7.4v27.2c-6.7-0.2-13.2-1.5-19.2-3.7z"/>
	<path class="st7" d="m514.5 428c-13.7-4.3-13.4 5.5-12.5 7-4.8 3 0.9 15 4.5 17.9 9.6 7.7 18 0.4 19.5-5.6 1.9-7.5-5.1-17.4-11.5-19.3zm3.7 20.8c-0.3-0.9-0.7-1.8-1.2-2.6-0.4-0.8-1-1.6-1.6-2.2-1.1-1.4-2.6-2.3-4.3-2.8-0.4-0.2-0.8-0.2-1.3-0.3-0.4-0.1-0.9-0.1-1.4-0.2-1-0.2-2-0.4-2.9-0.8-1-0.4-1.9-1.1-2.5-1.9s-0.9-1.9-0.9-2.9c0.4 0.9 0.9 1.7 1.6 2.2 0.7 0.6 1.5 0.9 2.3 1.1s1.7 0.3 2.7 0.4c0.9 0.1 2 0.2 3 0.5 2 0.6 3.9 2 4.9 3.8 0.6 0.9 1 1.8 1.2 2.8 0.3 0.9 0.5 1.9 0.4 2.9z"/>
	<path class="st8" d="m500.6 436.8c-1.7 4.5 2.9 13.6 6 16.1 7.6 6.1 14.5 2.7 17.8-1.9-13.5 2-20.4-6.7-23.8-14.2z"/>
	<path class="st7" d="m585 431.2c-6.3 14.7-20.9 7.9-25.2 4-9.7-8.7-3.6-11.7-2.1-12.2 0.5 0.4 1.1 0.8 1.7 1.1 0.9 0.5 1.9 1 2.9 1.4 1.9 0.8 3.9 1.4 6 1.9 2 0.5 4.1 1 6.1 1.3 2.1 0.3 4.1 0.5 6.2 0.5-1.9-0.8-3.9-1.4-5.9-2s-4-1.1-6-1.7l-6-1.5c-1-0.3-2-0.5-3-0.8-0.6-0.2-1.3-0.4-1.9-0.6-0.8-1.5-4.3-9.4 9.3-9.1 15.9 0.5 19.3 14.6 17.9 17.7z"/>
	<path class="st8" d="m581.9 436.3c-7.1 7.8-18.3 2.3-22-1-7.9-7.1-5.3-10.4-3.3-11.7 3 5.6 9.8 11.6 25.3 12.7z"/>
	<path class="st7" d="m646.2 403.7c-0.6 10-10.6 9.1-13.9 7.7-7.5-3-4.6-6.1-3.8-6.7 0.4 0.1 0.8 0.2 1.3 0.3 0.7 0.1 1.3 0.2 2 0.2 1.3 0 2.6 0 3.9-0.1s2.6-0.3 3.9-0.6 2.5-0.6 3.8-1c-1.3-0.1-2.6 0-3.9 0.1s-2.6 0.2-3.8 0.3c-1.3 0.1-2.6 0.3-3.8 0.4-0.6 0.1-1.3 0.1-1.9 0.2-0.4 0-0.8 0.1-1.2 0.1-0.8-0.7-4.5-4.6 3.5-7.3 9-3.3 14 4.3 13.9 6.4z"/>
	<path class="st8" d="m645.4 407.3c-2.5 6.1-10.3 5.3-13.1 4.1-6.1-2.5-5.4-4.9-4.4-6.1 2.9 2.7 8.2 4.7 17.5 2z"/>
	<circle class="st9" cx="350.3" cy="345.1" r="3.4"/>
	<circle class="st9" cx="388.4" cy="345.1" r="3.4"/>
	<path class="st9" d="m376.1 355.9c0.9 2 0.5 4.7-1.1 6.7-1.5 2-4.1 3.3-6.7 3.2-2.6 0-5.2-1.2-6.7-3.2s-2-4.6-1.1-6.7c0.9 2 2.1 3.4 3.5 4.3s2.8 1.3 4.3 1.3 2.9-0.4 4.3-1.3c1.4-1 2.6-2.3 3.5-4.3z"/>
	<path class="st10" d="m507.8 296.8c-1.7-0.5 1-3.2 2.6-3.3 2.7-0.1 8.4 3.8 9.6 6s-3.5 2.8-3.5 2.8-4.1-5-8.7-5.5"/>
	
		<ellipse class="st11" transform="matrix(.7362 -.6767 .6767 .7362 -156.32 465.52)" cx="519" cy="433.3" rx="1.4" ry="3.1"/>
	
		<ellipse class="st11" transform="matrix(.5552 -.8317 .8317 .5552 -91.62 666.64)" cx="577.5" cy="419" rx="1.4" ry="3.1"/>
	<ellipse class="st11" transform="matrix(.4146 -.91 .91 .4146 12.179 816.97)" cx="641.1" cy="399" rx="1" ry="2.2"/>
	<path class="st12" d="m374.4 136.2c-3.1 3-6 6.1-8.4 9.4s-4.4 6.8-5.4 10.4c-0.3 0.9-0.4 1.8-0.6 2.7 0 0.4-0.1 0.9-0.1 1.3v1.3c0.1 1.7 0.4 3.4 1 5.1 1.3 3.3 3.5 6.3 6.3 9l2.2 2.1 1.3 1.2c0.4 0.4 0.8 0.9 1.2 1.3 0.8 0.9 1.5 1.9 2.2 2.9 0.6 1.1 1.3 2.2 1.7 3.4 0.9 2.3 1.5 4.9 1.5 7.4s-0.5 4.9-1.2 7.2c-1.6 4.5-4.2 8.3-7.1 11.5-1.5 1.6-3.1 3.1-4.8 4.5s-3.5 2.6-5.3 3.7c2.7-3.3 5.2-6.8 7.3-10.3s3.7-7.3 4.5-10.9c0.4-1.8 0.5-3.7 0.3-5.4s-0.6-3.4-1.4-4.9l-0.6-1.2-0.7-1.1c-0.6-0.7-1-1.4-1.7-2.1-0.3-0.3-0.6-0.7-0.9-1l-1-0.9-2.5-2.2c-0.8-0.8-1.6-1.7-2.4-2.5-0.4-0.4-0.7-0.9-1.1-1.4s-0.7-0.9-1.1-1.4c-0.6-1-1.3-2-1.8-3.1-0.3-0.6-0.6-1.1-0.8-1.7l-0.6-1.8c-0.7-2.4-1.1-4.9-0.9-7.4 0.1-2.5 0.8-4.9 1.7-7.1 1.9-4.4 4.8-8 8.1-10.9 1.7-1.5 3.4-2.8 5.3-4s3.8-2.2 5.8-3.1z"/>
	<path class="st12" d="m413.4 132.5c-3.4 3.8-6.4 7.8-8.8 12.1-2.4 4.2-4.3 8.7-5.2 13.3-0.4 2.3-0.6 4.5-0.5 6.8 0.1 2.2 0.5 4.4 1.1 6.6 1.3 4.3 3.6 8.3 6.6 11.8l2.4 2.8c0.4 0.5 0.9 1.1 1.3 1.6l1.2 1.7c0.4 0.6 0.7 1.2 1.1 1.8 0.3 0.6 0.7 1.2 1 1.9s0.6 1.3 0.9 2c0.2 0.7 0.5 1.4 0.7 2 1.6 5.5 1.5 11.4 0 16.6-1.4 5.3-3.8 10-6.8 14.3-1.5 2.1-3.1 4.2-4.9 6-0.9 0.9-1.8 1.9-2.7 2.7-1 0.9-1.9 1.7-2.9 2.5 2.9-4.2 5.4-8.6 7.4-13 2.1-4.5 3.6-9.1 4.3-13.7 0.3-2.3 0.5-4.6 0.3-6.8s-0.6-4.4-1.3-6.5-1.8-4-3-5.8l-1-1.4c-0.4-0.4-0.7-0.9-1.1-1.3l-2.5-2.9c-0.5-0.5-0.8-1.1-1.2-1.6l-1.2-1.7c-0.4-0.6-0.7-1.2-1.1-1.7-0.3-0.6-0.8-1.2-1-1.8-0.6-1.3-1.3-2.5-1.7-3.8-0.2-0.7-0.5-1.3-0.7-2l-0.6-2c-0.6-2.7-1-5.6-0.9-8.4s0.6-5.6 1.4-8.2c1.6-5.3 4.4-9.9 7.8-13.9 1.7-2 3.5-3.9 5.5-5.5 1.8-1.6 3.8-3.2 6.1-4.5z"/>
</g>
</svg>
