<?xml version="1.0" encoding="UTF-8"?>
<svg enable-background="new 0 0 301.913 301.913" version="1.1" viewBox="0 0 301.91 301.91" xmlns="http://www.w3.org/2000/svg">
<g transform="matrix(-1 0 0 1 301.91 0)">
<path d="m280.97 156.72h-272.44c-2.638 0-5.129 1.22-6.744 3.306s-2.174 4.802-1.512 7.356c5.863 22.631 30.002 39.588 58.891 39.588 25.916 0 48.006-13.649 56.511-32.797l162.2 24.209c6.028 0.9 12.149-0.871 16.766-4.85s7.272-9.772 7.272-15.866c-1e-3 -11.569-9.378-20.946-20.946-20.946z"/>
<path d="m59.707 94.947c-13 0-36.77 36.77-36.77 36.77h73.539s-23.769-36.77-36.769-36.77z"/>
</g>
</svg>
